{"title":"Battle of the Damned 2013 BRRip 720p x264 AAC - PRiSTiNE [P2PDL]","uid":8769369,"size":579676335,"categoryP":"video","categoryS":"hd___movies","magnet":"?xt=urn:btih:cfd867b5bb184d91e131a876252ef39f202a2f0d&amp;dn=Battle+of+the+Damned+2013+BRRip+720p+x264+AAC+-+PRiSTiNE+%5BP2PDL%5D&amp;tr=udp%3A%2F%2Ftracker.openbittorrent.com%3A80&amp;tr=udp%3A%2F%2Fopen.demonii.com%3A1337&amp;tr=udp%3A%2F%2Ftracker.coppersurfer.tk%3A6969&amp;tr=udp%3A%2F%2Fexodus.desync.com%3A6969","seeders":0,"leechers":1,"uploader":"ValidusVyto","files":-1,"time":1375414070,"description":"_______ Visit us at our Semi Public Bittorrent Community ________\n  &lt;a href=&quot;\nhttp://p2pdl.com&quot; rel=&quot;nofollow&quot; target=&quot;_NEW&quot;&gt;\nhttp://p2pdl.com&lt;/a&gt;  _____________________________ &lt;a href=&quot; http://p2pdl.com&quot; rel=&quot;nofollow&quot; target=&quot;_NEW&quot;&gt; http://p2pdl.com&lt;/a&gt;\n\n\nBattle of the Damned 2013 BRRip 720p x264 AAC - PRiSTiNE\n\n\nGenre: Action | Adventure\nPlot: Following a deadly viral outbreak, private military soldier Max Gatling leads a\nhandful of survivors and a ragtag band of robots against an army of the infected.  \nDirector: Christopher Hatton\nStars: Dolph Lundgren, Matt Doran, David Field.\nRated: N/a\n\nInfo: &lt;a href=&quot;\nhttp://www.imdb.com/title/tt2210463/&quot; rel=&quot;nofollow&quot; target=&quot;_NEW&quot;&gt;\nhttp://www.imdb.com/title/tt2210463/&lt;/a&gt;\n\n\nFormat                         : MPEG-4\nFile size                      : 545 MiB\nDuration                       : 1h 28mn\nOverall bit rate mode          : Variable\nOverall bit rate               : 859 Kbps\nSource                         : 720p.BluRay.x264-OldsMan \n\nVideo\nFormat                         : AVC\nBit rate                       : 777 Kbps\nWidth                          : 1 280 pixels\nHeight                         : 720 pixels\nDisplay aspect ratio           : 16:9\nFrame rate mode                : Constant\nFrame rate                     : 23.976 fps\nStream size                    : 492 MiB (90%)\nWriting library                : x264 core 130 r2273\n\nAudio\nFormat                         : AAC\nBit rate mode                  : Variable\nBit rate                       : 80.0 Kbps\nSampling rate                  : 48.0 KHz\nStream size                    : 50.7 MiB (9%)\nLanguage                       : English\n\nSubtitle                       : N/a\n &lt;a href=&quot;\nhttp://someimage.com/MDl1qb3&quot; rel=&quot;nofollow&quot; target=&quot;_NEW&quot;&gt;\nhttp://someimage.com/MDl1qb3&lt;/a&gt; &lt;a href=&quot;\nhttp://someimage.com/on6HfKH&quot; rel=&quot;nofollow&quot; target=&quot;_NEW&quot;&gt;\nhttp://someimage.com/on6HfKH&lt;/a&gt; &lt;a href=&quot;\nhttp://someimage.com/Uf81tkL&quot; rel=&quot;nofollow&quot; target=&quot;_NEW&quot;&gt;\nhttp://someimage.com/Uf81tkL&lt;/a&gt; &lt;a href=&quot;\nhttp://someimage.com/qsl4tsq&quot; rel=&quot;nofollow&quot; target=&quot;_NEW&quot;&gt;\nhttp://someimage.com/qsl4tsq&lt;/a&gt; &lt;a href=&quot;\nhttp://someimage.com/6j6IMhA&quot; rel=&quot;nofollow&quot; target=&quot;_NEW&quot;&gt;\nhttp://someimage.com/6j6IMhA&lt;/a&gt; &lt;a href=&quot;\nhttp://someimage.com/3jtixqQ&quot; rel=&quot;nofollow&quot; target=&quot;_NEW&quot;&gt;\nhttp://someimage.com/3jtixqQ&lt;/a&gt; &lt;a href=&quot;\nhttp://someimage.com/D0no5lf&quot; rel=&quot;nofollow&quot; target=&quot;_NEW&quot;&gt;\nhttp://someimage.com/D0no5lf&lt;/a&gt; &lt;a href=&quot;\nhttp://someimage.com/pwQFP2A&quot; rel=&quot;nofollow&quot; target=&quot;_NEW&quot;&gt;\nhttp://someimage.com/pwQFP2A&lt;/a&gt;\n\n\n----------------------------------------------------------------------------------------------------\n\n\nEncoded using revolutionary 10bit encoding, which enables us to provide you more crispier \nand sharper images at small sizes, just make sure you follow our instructions without a fault.\nRecommend to you to use latest version of VLC player. Install K-Lite Codec Pack or shark007 codecs\nin case of any kind of problem in playback (For non-VLC Media Player users). Alternatively, install\nCore AVC codecs, the fastest decoder that there is coupled with Community Center Codec Pack and play\non Windows Media Player Classic. Check sample to be sure.\nEnjoy!\n\nEncoder Notes:Looking For Early Access To Anything You Can Provide DVDScr, R5, DVDR, BluRay, Direct\nAudio, Music Releases and Seedboxes. We require dedicated servers, so as to do more \nand fast releases of movies.\nIf You Got anything to offer please contact us at &quot;&lt;a class=&quot;__cf_email__&quot; href=&quot;/cdn-cgi/l/email-protection&quot; data-cfemail=&quot;6f1f1d082f071a1c07410c0002&quot;&gt;[email&amp;#160;protected]&lt;/a&gt;&lt;script cf-hash='f9e31' type=&quot;text/javascript&quot;&gt;\n/* &lt;![CDATA[ */!function(){try{var t=&quot;currentScript&quot;in document?document.currentScript:function(){for(var t=document.getElementsByTagName(&quot;script&quot;),e=t.length;e--;)if(t[e].getAttribute(&quot;cf-hash&quot;))return t[e]}();if(t&amp;&amp;t.previousSibling){var e,r,n,i,c=t.previousSibling,a=c.getAttribute(&quot;data-cfemail&quot;);if(a){for(e=&quot;&quot;,r=parseInt(a.substr(0,2),16),n=2;a.length-n;n+=2)i=parseInt(a.substr(n,2),16)^r,e+=String.fromCharCode(i);e=document.createTextNode(e),c.parentNode.replaceChild(e,c)}}}catch(u){}}();/* ]]&gt; */&lt;/script&gt;&quot;.\n\nFace book Fan Page:  \n","torrent":{"xt":"urn:btih:cfd867b5bb184d91e131a876252ef39f202a2f0d","amp;dn":"Battle+of+the+Damned+2013+BRRip+720p+x264+AAC+-+PRiSTiNE+%5BP2PDL%5D","amp;tr":["udp%3A%2F%2Ftracker.openbittorrent.com%3A80","udp%3A%2F%2Fopen.demonii.com%3A1337","udp%3A%2F%2Ftracker.coppersurfer.tk%3A6969","udp%3A%2F%2Fexodus.desync.com%3A6969"],"infoHash":"cfd867b5bb184d91e131a876252ef39f202a2f0d","infoHashBuffer":{"type":"Buffer","data":[207,216,103,181,187,24,77,145,225,49,168,118,37,46,243,159,32,42,47,13]},"announce":[],"urlList":[]}}